<svg height="512pt" viewBox="0 0 512 511" width="512pt" xmlns="http://www.w3.org/2000/svg"><path d="m453.898438 418.699219 58.101562-12.664063-6.375-29.246094-27.324219 5.957032c43.4375-77.539063 44.023438-174.121094-2.863281-253.507813l-25.773438 15.222657c20.71875 35.078124 30.917969 73.96875 31.136719 112.644531l-22.214843-28.886719-23.726563 18.242188 41.882813 54.472656c-12.011719 62.277344-49.460938 114.996094-99.859376 146.738281l20.4375-57.140625-28.183593-10.078125-30.929688 86.476563c-25.859375 9.792968-53.75 14.722656-82.558593 14.3125-31.304688-.441407-61.628907-7.121094-89.53125-19.390626 25.496093-2.628906 51.183593-10.992187 74.664062-22.335937l74.40625 23.730469 9.09375-28.519532-48.1875-15.363281c18.949219-12.53125 37.238281-27.46875 54.222656-44.453125 13.054688-13.058594 24.933594-26.765625 35.492188-40.898437l80.367187 2.941406 1.09375-29.910156-61.878906-2.265625c26.558594-44.625 46.65625-104.363282 28.328125-152.734375l-27.988281 10.605469c13.878906 36.628906-2.78125 85.382812-22.265625 120.109374l-8.1875-28.398437-28.757813 8.289063 15.355469 53.265624c-9.78125 13.140626-20.769531 25.875-32.722656 37.832032-28.386719 28.386718-60.503906 50.421875-92.808594 63.996094l11.316406-26.34375-27.5-11.8125-21.5 50.054687c-28.230468 5.8125-52.980468 3.367187-70.722656-6.769531l89.402344-89.402344h78.460937v-29.933594h-48.527343l112.019531-112.019531-21.164063-21.167969-48.527344 48.53125v-48.53125h-29.933593v78.460938l-97.054688 97.058594v-48.53125h-29.933593v78.464843l-25.898438 25.898438c-22.785156-40.253907-1.058594-111.074219 46.769531-170.78125l52.976563 17.164062 9.226562-28.476562-40.628906-13.160157c1.410156-1.457031 2.828125-2.910156 4.269531-4.351562 63.898438-63.894531 143.652344-94.550781 191.09375-76.578125l10.605469-27.988281c-50.796875-19.25-114.246094 3.714844-160.773438 33.28125l5.730469-64.96875-29.816406-2.628906-8 90.695312c-10.300781 8.324219-20.332031 17.347656-30.003906 27.023438-16.945313 16.945312-31.9375 35.058593-44.609375 53.730468l-15.210938-47.691406-28.515625 9.09375 23.304688 73.078125c-11.988281 23.601563-21.253907 49.851563-24.328125 76.148437-12.410156-28.117187-18.941406-58.714843-18.941406-90.28125 0-28.335937 5.265624-55.894531 15.320312-81.578124l87.441406-31.320313-10.089844-28.179687-57.515624 20.601562c33.429687-52.199219 87.8125-90.121094 152.398437-100.984375l48.480469 42.261719 19.667968-22.566406-26.101562-22.75c37.519531.792968 75.125 10.996093 109.148438 31.089843l15.21875-25.773437c-79.496094-46.949219-176.242188-46.300782-253.832032-2.683594l6.296875-24.332031-28.976562-7.5-14.929688 57.691406c-20.621093 17.085937-38.40625 37.246094-52.664062 59.523437l-7.910157-35.085937-29.199218 6.585937 15.746094 69.84375c-12.085938 29.871094-18.429688 62.042969-18.429688 95.15625 0 67.816407 26.542969 131.707032 74.734375 179.902344 48.296875 48.296875 113.0625 75.308594 180.488281 76.261719 1.257813.019531 2.5.027344 3.75.027344 31.785156 0 62.554688-5.746094 91.132813-16.753907l71.171875 16.046876 6.582031-29.199219-35.472656-8c23.851562-14.957031 44.425781-33.542969 61.511719-54.59375zm0 0"/></svg>